<?xml version="1.0" encoding="UTF-8"?>
<svg version="1.1" xmlns="http://www.w3.org/2000/svg" width="2226" height="678">
<path d="M0 0 C27.72 0 55.44 0 84 0 C87.13488453 7.52372288 90.15735999 14.95597487 92.87109375 22.62109375 C93.22554565 23.61362656 93.57999756 24.60615936 93.94519043 25.62876892 C94.71073047 27.77333268 95.47488075 29.91839296 96.23776245 32.06390381 C97.9010384 36.74094456 99.57175582 41.41531667 101.24208069 46.08984375 C102.1298802 48.57443073 103.01735656 51.0591332 103.90452576 53.54394531 C108.65850607 66.85739671 113.44802586 80.15799058 118.245224 93.45592117 C118.94050137 95.38332018 119.63560735 97.31078094 120.33068848 99.23825073 C127.32983775 118.64514532 134.37280297 138.03589707 141.43338013 157.42053223 C147.46059705 173.97210265 153.43919022 190.54043509 159.375 207.125 C159.75622009 208.1901181 160.13744019 209.25523621 160.5302124 210.35263062 C160.91195618 211.41921906 161.29369995 212.4858075 161.68701172 213.5847168 C167.55670333 229.98337283 173.44587195 246.37491407 179.35211182 262.76043701 C180.31285547 265.425826 181.27309814 268.09139453 182.23284912 270.75714111 C183.57715903 274.4908891 184.92324797 278.22399432 186.26953125 281.95703125 C186.65942734 283.04038254 187.04932343 284.12373383 187.45103455 285.23991394 C190.5614034 293.85618011 193.78273122 302.42061659 197 311 C197.495 157.055 197.495 157.055 198 0 C227.04 0 256.08 0 286 0 C286 173.58 286 347.16 286 526 C282.7314031 527.63429845 279.07994193 527.6452984 275.48291016 528.03149414 C274.16074745 528.17801674 274.16074745 528.17801674 272.81187439 528.32749939 C269.88800667 528.65050555 266.96356254 528.96793006 264.0390625 529.28515625 C262.01123091 529.50765551 259.98342975 529.73043235 257.95565796 529.95347595 C253.70051515 530.42068653 249.44509683 530.88527497 245.18945312 531.34790039 C239.73240404 531.94123241 234.27595201 532.53985586 228.81968117 533.14029789 C224.63004033 533.60096268 220.44015897 534.05940704 216.25019455 534.51711845 C214.23827501 534.73705773 212.226416 534.95755148 210.21461868 535.17860603 C207.40193648 535.48720471 204.58895961 535.79295857 201.77587891 536.09790039 C200.52578789 536.2358049 200.52578789 536.2358049 199.2504425 536.37649536 C195.80402577 536.74745403 192.47100744 537 189 537 C181.48374418 515.57532755 173.99836363 494.14021633 166.5625 472.6875 C161.32513339 457.57890992 156.0811445 442.47271436 150.8125 427.375 C150.36931427 426.10490082 150.36931427 426.10490082 149.91717529 424.80914307 C146.55952511 415.1876413 143.19853869 405.5673066 139.83587074 395.94755745 C137.28589812 388.65271849 134.73652158 381.35767133 132.1875 374.0625 C131.95286797 373.39103943 131.71823593 372.71957886 131.47649384 372.027771 C124.08643296 350.87854029 116.72905854 329.71827763 109.42456055 308.53930664 C103.02276148 289.99960233 96.50214582 271.50610733 90 253 C89.67 350.68 89.34 448.36 89 549 C83.0286599 550.19426802 77.25910201 551.31790258 71.25878906 552.14501953 C70.5549559 552.24284729 69.85112274 552.34067505 69.1259613 552.44146729 C66.83960008 552.75836577 64.55265826 553.07080408 62.265625 553.3828125 C60.65759218 553.60400434 59.04958066 553.82535109 57.44158936 554.04684448 C54.09008212 554.50773936 50.73826956 554.96632979 47.38623047 555.42333984 C43.09970702 556.0080096 38.81410607 556.5991625 34.52872086 557.19211006 C31.21592762 557.64963808 27.90262598 558.10339449 24.58916473 558.55605698 C23.00861391 558.77250505 21.42823245 558.99019373 19.84803009 559.2091713 C17.64040801 559.51458849 15.43213913 559.81482282 13.22363281 560.11376953 C11.97028137 560.28538605 10.71692993 560.45700256 9.42559814 560.63381958 C6 561 6 561 0 561 C0 375.87 0 190.74 0 0 Z " fill="#E50914" transform="translate(73,68)"/>
<path d="M0 0 C31.68 0 63.36 0 96 0 C101.74794718 13.79507323 101.74794718 13.79507323 104.3203125 20.41796875 C104.61642426 21.17705032 104.91253601 21.9361319 105.21762085 22.71821594 C106.18815669 25.20743073 107.15661936 27.69744607 108.125 30.1875 C108.82348781 31.98049988 109.52205766 33.7734678 110.22070312 35.56640625 C116.0631611 50.56657971 121.87954805 65.57687659 127.69628906 80.58703613 C133.13929126 94.63236283 138.58948892 108.67484397 144.0612793 122.70898438 C144.76587148 124.51631102 145.47014009 126.32376385 146.17407227 128.13134766 C147.13850681 130.60747944 148.10419945 133.08311647 149.0703125 135.55859375 C149.35476227 136.28940659 149.63921204 137.02021942 149.93228149 137.7731781 C151.3563871 141.43443151 151.3563871 141.43443151 153 145 C153.43006348 143.99477295 153.86012695 142.9895459 154.30322266 141.95385742 C164.33005483 118.52127274 174.39109158 95.10364825 184.49536133 71.7043457 C185.4226952 69.55680615 186.35002263 67.40926381 187.27734375 65.26171875 C187.73939713 64.19172134 188.2014505 63.12172394 188.67750549 62.01930237 C191.68472026 55.05318074 194.68542891 48.08428791 197.68197632 41.11357117 C199.73046779 36.34847911 201.78065663 31.58411816 203.83093262 26.8197937 C204.81509319 24.53152105 205.79841649 22.24288811 206.78088379 19.95388794 C208.13954499 16.78864663 209.5010883 13.62466014 210.86328125 10.4609375 C211.26946182 9.51253494 211.6756424 8.56413239 212.09413147 7.58699036 C212.6494883 6.29942085 212.6494883 6.29942085 213.21606445 4.98583984 C213.69944023 3.86089615 213.69944023 3.86089615 214.19258118 2.71322632 C215 1 215 1 216 0 C219.01350238 -0.09529612 222.00404106 -0.12551904 225.01782227 -0.11352539 C225.96406464 -0.11367142 226.91030701 -0.11381744 227.88522339 -0.1139679 C231.02897392 -0.11326836 234.17266601 -0.10547409 237.31640625 -0.09765625 C239.48974068 -0.09579221 241.66307552 -0.09436824 243.83641052 -0.09336853 C249.56901195 -0.08954221 255.30158823 -0.07971097 261.03417969 -0.06866455 C266.87890279 -0.05845287 272.72362993 -0.05387143 278.56835938 -0.04882812 C290.045584 -0.0380888 301.52278991 -0.02101102 313 0 C312.44204828 3.11167887 311.75483568 5.90038447 310.49145508 8.79736328 C310.18125931 9.51534088 309.87106354 10.23331848 309.5514679 10.97305298 C309.04065926 12.13494644 309.04065926 12.13494644 308.51953125 13.3203125 C307.97929573 14.56547134 307.97929573 14.56547134 307.42814636 15.83578491 C306.22737045 18.60081038 305.01984238 21.36283622 303.8125 24.125 C302.95844129 26.08895663 302.10493714 28.0531545 301.25195312 30.01757812 C299.43881037 34.19251673 297.62355485 38.36652796 295.80712891 42.54003906 C291.64392363 52.11271686 287.5153819 61.70034159 283.38461304 71.28704834 C281.05986974 76.68154315 278.73302297 82.0751304 276.40625 87.46875 C275.94973557 88.52706024 275.49322113 89.58537048 275.02287292 90.67575073 C270.51808807 101.11839359 266.0093547 111.55932988 261.5 122 C253.80608031 139.8142696 246.11747417 157.63082705 238.43310547 175.44921875 C234.12520256 185.4381223 229.81641039 195.42663699 225.50306702 205.41319275 C223.51981686 210.00508526 221.537189 214.59724635 219.55459595 219.18942261 C218.61901059 221.35599824 217.68312953 223.52244621 216.74691772 225.68875122 C216.30473907 226.71193451 215.86256042 227.7351178 215.40698242 228.78930664 C214.97445663 229.78950333 214.54193085 230.78970001 214.09629822 231.82020569 C213.25566926 233.77096387 212.41918753 235.72351522 211.58717346 237.67796326 C209.63080791 242.26994915 207.62848891 246.82291234 205.48730469 251.33203125 C200.7701505 260.3283072 200.7701505 260.3283072 200.5625 270.05859375 C201.33791138 271.72351072 202.15685162 273.36834068 203 275 C203.79152118 276.97349658 204.53159765 278.96322241 205.27458191 280.95547485 C206.46995264 284.14228652 207.72549476 287.30446729 208.97598267 290.4699707 C210.40036031 294.07610182 211.81560734 297.68579676 213.23152161 301.29525757 C213.98775076 303.22285703 214.74442168 305.15028323 215.50151062 307.07754517 C219.80587493 318.03850424 224.05952605 329.0190235 228.3125 340 C229.11453314 342.06976229 229.91661679 344.139505 230.71875 346.20922852 C232.33825307 350.38810625 233.95753757 354.56706858 235.57666016 358.74609375 C239.15444202 367.97996087 242.73507533 377.21272227 246.31552124 386.44555664 C248.29380025 391.54699145 250.27189047 396.64849947 252.25 401.75 C253.04166576 403.79166702 253.83333243 405.83333368 254.625 407.875 C256.20833333 411.95833333 257.79166667 416.04166667 259.375 420.125 C259.76686996 421.13560989 260.15873993 422.14621979 260.56248474 423.18745422 C261.35420805 425.22927124 262.14592557 427.27109049 262.93763733 429.31291199 C264.91589011 434.41479669 266.89424298 439.51664254 268.87280273 444.6184082 C272.44622827 453.83286559 276.01894987 463.04759251 279.58787537 472.26379395 C281.18314923 476.38318488 282.7789617 480.50236706 284.37484741 484.621521 C285.16204219 486.65370001 285.94901183 488.68596626 286.73574829 490.71832275 C291.19029166 502.22468055 295.66994349 513.72051438 300.1953125 525.19921875 C301.04097023 527.34739794 301.88659253 529.49559108 302.73217773 531.64379883 C304.33797436 535.72273846 305.95045434 539.79895083 307.56665039 543.8737793 C308.28816347 545.7048207 309.00944923 547.53595169 309.73046875 549.3671875 C310.06382233 550.20219284 310.3971759 551.03719818 310.7406311 551.89750671 C311.19035782 553.04434685 311.19035782 553.04434685 311.64916992 554.21435547 C311.9116301 554.87708466 312.17409027 555.53981384 312.44450378 556.22262573 C313 558 313 558 313 561 C301.74241502 560.34740632 290.6427007 558.82392008 279.48046875 557.27734375 C277.52611281 557.00939642 275.57171031 556.74178847 273.61726379 556.47450256 C268.51567591 555.77590511 263.41472656 555.07275069 258.31390381 554.36859131 C253.09181415 553.64853158 247.86912355 552.93285806 242.64648438 552.21679688 C232.43040232 550.81544978 222.21499057 549.40927976 212 548 C205.94772846 533.27935526 199.96448663 518.54700989 194.36309814 503.64782715 C192.68505774 499.18743753 190.9930831 494.73233834 189.30078125 490.27734375 C188.94977356 489.35321686 188.59876587 488.42908997 188.23712158 487.47695923 C182.44205918 472.24860827 176.4600077 457.09240069 170.50326538 441.92677307 C167.6259182 434.60004352 164.75842868 427.26949631 161.89453125 419.9375 C161.05648621 417.79263997 160.21843293 415.64778316 159.38037109 413.50292969 C158.16587518 410.39456697 156.95159922 407.28611942 155.73809814 404.17736816 C154.62704528 401.33144811 153.51482805 398.48598574 152.40234375 395.640625 C152.07095901 394.79089111 151.73957428 393.94115723 151.39814758 393.06567383 C151.095233 392.29151123 150.79231842 391.51734863 150.48022461 390.71972656 C150.21696884 390.04572815 149.95371307 389.37172974 149.68247986 388.67730713 C148.99451486 386.92474735 148.99451486 386.92474735 148 385 C147.57517334 385.99475342 147.15034668 386.98950684 146.71264648 388.0144043 C136.89387846 410.99754487 127.00218804 433.94796205 117.03567505 456.86743164 C111.89755046 468.68410011 106.77094307 480.50509987 101.7109375 492.35546875 C101.2964032 493.3258609 100.8818689 494.29625305 100.45477295 495.29605103 C98.52184193 499.82301184 96.59287033 504.35160258 94.66992188 508.8828125 C91.33710422 516.71437986 87.94671112 524.45226645 84 532 C71.89108599 531.43549087 59.88418724 530.4752317 47.8359375 529.15234375 C46.18018863 528.97400788 44.5243954 528.79608356 42.86856079 528.61854553 C38.57755516 528.15737892 34.28716231 527.69074676 29.99688721 527.22283936 C25.59204218 526.74346113 21.18662078 526.26943981 16.78125 525.79492188 C8.18693811 524.86842292 -0.4067318 523.93612956 -9 523 C-8.21761602 518.74225864 -6.90743601 515.13938853 -5.18359375 511.15625 C-4.89599686 510.48803726 -4.60839996 509.81982452 -4.31208801 509.13136292 C-3.35849076 506.91889118 -2.39801164 504.70947771 -1.4375 502.5 C-0.75770767 500.92653677 -0.07835403 499.35288394 0.60058594 497.77905273 C2.37847126 493.66083259 4.16202229 489.5450908 5.94683838 485.42987061 C7.59694535 481.62271854 9.24180414 477.81330388 10.88671875 474.00390625 C13.5181376 467.91159183 16.15257015 461.82058919 18.7890625 455.73046875 C23.24025968 445.44785312 27.68339974 435.16176409 32.125 424.875 C32.51799286 423.96486145 32.91098572 423.0547229 33.31588745 422.11700439 C40.74150078 404.91939784 48.16222434 387.7196819 55.58081055 370.51904297 C56.50960214 368.36555958 57.43839446 366.21207651 58.3671875 364.05859375 C58.82891861 362.98802734 59.29064972 361.91746094 59.76637268 360.81445312 C62.13559103 355.32149682 64.50532359 349.8287631 66.87597656 344.33642578 C67.35180176 343.23400543 67.82762695 342.13158508 68.31787109 340.99575806 C69.27565965 338.77705581 70.23366647 336.55844777 71.19189453 334.3399353 C73.52959084 328.92650971 75.8630079 323.51132574 78.18652344 318.09179688 C81.94419285 309.33526116 85.70563555 300.58575682 89.6603241 291.91598511 C91.13740333 288.67543015 92.5938478 285.42580454 94.04885864 282.17529297 C94.71333634 280.70834067 95.38882959 279.24631738 96.0763855 277.79003906 C97.00733785 275.81806844 97.89945466 273.83245474 98.78515625 271.83984375 C99.28926025 270.75050537 99.79336426 269.66116699 100.31274414 268.53881836 C101.30479509 263.43054892 99.80037954 259.78589829 98 255 C97.70831436 254.19718094 97.41662872 253.39436188 97.11610413 252.56721497 C96.17883837 250.04201869 95.20393629 247.53421591 94.21875 245.02734375 C93.85322021 244.08786392 93.48769043 243.14838409 93.11108398 242.18043518 C91.91092253 239.09806645 90.70543184 236.01781098 89.5 232.9375 C88.64737751 230.75015936 87.7951716 228.5626563 86.94335938 226.375 C85.174788 221.83384259 83.40443283 217.29338672 81.6328125 212.75341797 C77.96449421 203.34897891 74.31801385 193.93608969 70.67138672 184.52322388 C68.6986289 179.43174687 66.72422555 174.34090803 64.75 169.25 C63.95832557 167.20833634 63.1666589 165.16666968 62.375 163.125 C61.7871875 161.6090625 61.7871875 161.6090625 61.1875 160.0625 C38.625 101.875 38.625 101.875 37.43774414 98.81309509 C36.64529471 96.76943275 35.85281419 94.72578246 35.06030273 92.68214417 C33.09285861 87.60860924 31.125938 82.53487264 29.16015625 77.46069336 C25.45859667 67.90769551 21.75160223 58.35690271 18.02722168 48.81277466 C16.27181022 44.31344316 14.51922044 39.81301495 12.7668457 35.3125 C11.93215507 33.17116223 11.09608818 31.03036034 10.25854492 28.89013672 C9.09593596 25.91899877 7.93812146 22.94603201 6.78125 19.97265625 C6.44150146 19.10814346 6.10175293 18.24363068 5.75170898 17.35292053 C3.521274 11.60193903 1.78452337 5.94841123 0 0 Z " fill="#E50914" transform="translate(1845,68)"/>
<path d="M0 0 C80.85 0 161.7 0 245 0 C245 29.37 245 58.74 245 89 C193.52 89 142.04 89 89 89 C89 127.61 89 166.22 89 206 C95.27 205.67 101.54 205.34 108 205 C111.75604372 204.92525866 115.49096468 204.87073384 119.24487305 204.88647461 C120.21325104 204.88632858 121.18162903 204.88618256 122.17935181 204.8860321 C125.29016595 204.88671299 128.40091545 204.89441684 131.51171875 204.90234375 C133.70416735 204.90421446 135.89661638 204.90563527 138.08906555 204.90663147 C143.79181116 204.91040533 149.4945303 204.92019023 155.19726562 204.93133545 C162.07591454 204.94348471 168.95457243 204.94797629 175.83322906 204.95378876 C186.22217098 204.963406 196.61105511 204.98259808 207 205 C207 233.71 207 262.42 207 292 C197.55375 292.165 188.1075 292.33 178.375 292.5 C175.52536621 292.55220703 172.67573242 292.60441406 169.73974609 292.65820312 C142.81569637 293.10191907 115.94315093 293 89 293 C89 335.9 89 378.8 89 423 C95.6 422.34 102.2 421.68 109 421 C112.66357945 420.69929586 116.3201016 420.40932295 119.98657227 420.16210938 C120.91838318 420.09675491 121.85019409 420.03140045 122.8102417 419.96406555 C125.81209816 419.75431093 128.81423075 419.5488832 131.81640625 419.34375 C133.96843368 419.19466414 136.1204465 419.04536718 138.27244568 418.89587402 C142.76084552 418.58474114 147.24938201 418.27568946 151.73803711 417.96826172 C157.37738883 417.58192329 163.01641718 417.19108846 168.65535069 416.79869843 C173.09934904 416.48987406 177.54349481 416.18321257 181.98768425 415.87715149 C184.06048326 415.73422885 186.13324612 415.59078053 188.20596504 415.44670105 C207.1300726 414.13381675 226.05856802 413.08236754 245 412 C245 441.04 245 470.08 245 500 C229.93096974 501.15915617 214.87351507 502.31059223 199.79401398 503.29475021 C194.67882056 503.62914774 189.56405142 503.96995138 184.44921875 504.30981445 C183.3783112 504.38088913 182.30740364 504.45196381 181.20404434 504.52519226 C143.44775111 507.0326874 105.71173716 509.70170914 68 512.8125 C67.10485184 512.88627743 66.20970367 512.96005486 65.28742981 513.03606796 C44.03398135 514.78919598 44.03398135 514.78919598 22.7890625 516.64208984 C21.71986572 516.73745529 20.65066895 516.83282074 19.54907227 516.93107605 C17.65085096 517.1015036 15.75286825 517.27462661 13.85522461 517.45137024 C13.03803955 517.52502304 12.22085449 517.59867584 11.37890625 517.67456055 C10.6938501 517.73806198 10.00879395 517.80156342 9.30297852 517.86698914 C6.20682844 518.04581043 3.10130978 518 0 518 C0 347.06 0 176.12 0 0 Z " fill="#E50914" transform="translate(443,68)"/>
<path d="M0 0 C81.18 0 162.36 0 246 0 C246 29.37 246 58.74 246 89 C193.86 89 141.72 89 88 89 C88 125.96 88 162.92 88 201 C127.27 201 166.54 201 207 201 C207 229.71 207 258.42 207 288 C167.73 288 128.46 288 88 288 C88 354 88 420 88 488 C58.96 488 29.92 488 0 488 C0 326.96 0 165.92 0 0 Z " fill="#E50914" transform="translate(1071,68)"/>
<path d="M0 0 C89.76 0 179.52 0 272 0 C272 29.37 272 58.74 272 89 C241.64 89 211.28 89 180 89 C180 221.33 180 353.66 180 490 C167.62309013 491.12517362 167.62309013 491.12517362 162.08251953 491.29711914 C160.84398224 491.33708511 159.60544495 491.37705109 158.32937622 491.41822815 C156.37582718 491.47610756 156.37582718 491.47610756 154.3828125 491.53515625 C152.99477436 491.57833893 151.60674347 491.621755 150.21871948 491.66539001 C147.32604752 491.75562651 144.43331984 491.84364771 141.54052734 491.92993164 C137.87072122 492.03948567 134.20107925 492.15370815 130.53146553 492.26950932 C127.66926804 492.35945467 124.80700982 492.44732977 121.94472885 492.53457451 C119.94596383 492.59572421 117.94723951 492.65819968 115.94851685 492.72071838 C114.70367523 492.7575322 113.45883362 492.79434601 112.17626953 492.83227539 C111.10136261 492.86478897 110.02645569 492.89730255 108.91897583 492.93080139 C103.28014902 493.03036796 97.63970578 493 92 493 C92 359.68 92 226.36 92 89 C61.64 89 31.28 89 0 89 C0 59.63 0 30.26 0 0 Z " fill="#E50914" transform="translate(743,68)"/>
<path d="M0 0 C29.37 0 58.74 0 89 0 C89 134.64 89 269.28 89 408 C102.365 408.495 102.365 408.495 116 409 C122.99534331 409.35264083 129.98803058 409.71960575 136.98046875 410.12109375 C138.8606099 410.22717382 140.74076262 410.33304887 142.6209259 410.43873596 C146.51536083 410.65817241 150.40969598 410.87927201 154.30395508 411.10180664 C159.18966804 411.38097286 164.07555045 411.65702453 168.96150017 411.93201256 C180.11600917 412.55997462 191.26980427 413.19959793 202.42302704 413.84999847 C204.96086759 413.99772216 207.49876925 414.14435731 210.03668213 414.29083252 C213.8811774 414.51326241 217.72536058 414.74045631 221.56933022 414.97178841 C222.95969328 415.05486748 224.35014393 415.13649522 225.7406826 415.21658134 C227.6207416 415.32521776 229.50044886 415.43989258 231.38012695 415.55493164 C232.42505814 415.61717422 233.46998932 415.67941681 234.54658508 415.74354553 C237 416 237 416 239 417 C239 445.71 239 474.42 239 504 C232.19965751 504 225.54753196 503.94687311 218.78442383 503.51269531 C217.49907635 503.43443622 217.49907635 503.43443622 216.18776226 503.35459614 C214.3337303 503.24137219 212.47978811 503.1266703 210.62593079 503.01062202 C207.62162296 502.82278506 204.61707446 502.63933178 201.61242676 502.45701599 C197.27415241 502.19367213 192.93595375 501.92913339 188.59780884 501.66366577 C151.51439882 499.39881183 114.42854653 497.33735208 77.3125 495.6875 C76.40171818 495.64683914 75.49093636 495.60617828 74.55255508 495.56428528 C56.22590144 494.74661803 37.89895025 493.93438229 19.56282043 493.35734558 C18.58455795 493.32425797 17.60629547 493.29117035 16.59838867 493.25708008 C15.77505539 493.23116287 14.95172211 493.20524567 14.10343933 493.17854309 C9.39369511 492.90758813 4.69815797 492.42710527 0 492 C0 329.64 0 167.28 0 0 Z " fill="#E50914" transform="translate(1372,68)"/>
<path d="M0 0 C29.04 0 58.08 0 88 0 C88 170.61 88 341.22 88 517 C1 510 1 510 0 509 C-0.09894772 506.30087648 -0.13176043 503.62732477 -0.12304783 500.92771053 C-0.12420167 500.06717448 -0.12535552 499.20663843 -0.12654433 498.32002553 C-0.12921871 495.39871058 -0.12468212 492.47744931 -0.12025452 489.55613708 C-0.12069005 487.45575051 -0.12156463 485.35536399 -0.12284368 483.25497776 C-0.12509214 477.45382918 -0.12106259 471.65269886 -0.11606562 465.85155261 C-0.11176631 459.60679474 -0.11320717 453.36203798 -0.1139679 447.11727905 C-0.11449346 436.28803136 -0.11137799 425.45879106 -0.10573006 414.62954521 C-0.09981957 403.26785695 -0.09596543 391.90617107 -0.09487724 380.54448128 C-0.0948085 379.83889951 -0.09473976 379.13331773 -0.09466894 378.4063547 C-0.09433062 374.8232808 -0.09402923 371.2402069 -0.09374207 367.65713299 C-0.09163985 342.25685331 -0.08489745 316.85657675 -0.07543945 291.45629883 C-0.06625988 266.77530941 -0.05917389 242.09432086 -0.05493164 217.41333008 C-0.05480011 216.65298715 -0.05466859 215.89264421 -0.05453308 215.10926058 C-0.05321459 207.47380965 -0.05193877 199.83835871 -0.05069422 192.20290776 C-0.04815778 176.64764667 -0.04533653 161.09238564 -0.04234314 145.53712463 C-0.04220585 144.82186806 -0.04206856 144.10661149 -0.04192711 143.36968048 C-0.03272142 95.5797856 -0.01664783 47.7898928 0 0 Z " fill="#E50914" transform="translate(1683,68)"/>
</svg>
